<svg width="100" height="29" viewBox="0 0 100 29" fill="none" xmlns="http://www.w3.org/2000/svg">
<path d="M17.6583 17.2842C18.3577 18.3999 18.7075 19.577 18.7075 20.8069C18.7075 21.8347 18.466 22.8098 17.983 23.741C17.4834 24.6722 16.7923 25.4804 15.9013 26.1656C15.0769 26.8245 14.136 27.3252 13.0785 27.659C12.021 28.0016 10.9218 28.1685 9.77271 28.1685C7.33292 28.1685 5.26785 27.5009 3.56916 26.1568C2.29514 25.1817 1.45413 23.9782 1.02945 22.5287L3.94387 20.7981C3.94387 21.5097 4.21033 22.1773 4.74325 22.8098C5.27618 23.4423 5.99229 23.943 6.8916 24.3296C7.7909 24.7073 8.7485 24.9006 9.76438 24.9006C10.7886 24.9006 11.7462 24.7073 12.6372 24.3296C13.5365 23.9518 14.2443 23.4511 14.7689 22.8274C15.2934 22.2124 15.5516 21.536 15.5516 20.7981C15.5516 20.1919 15.3684 19.6122 14.9937 19.0499C14.619 18.4877 14.086 18.0045 13.3866 17.6092C12.6621 17.2139 11.3798 16.8977 9.53955 16.6605C7.49946 16.476 5.95065 16.0982 4.90979 15.5185C3.61079 14.8859 2.60324 14.0163 1.88712 12.9006C1.16268 11.7849 0.804626 10.5814 0.804626 9.29883C0.804626 8.27101 1.04611 7.2959 1.53739 6.36472C2.02035 5.43353 2.70316 4.62533 3.57749 3.94012C5.31781 2.59605 7.39121 1.92841 9.78103 1.92841C10.9301 1.92841 12.021 2.09532 13.0702 2.43792C14.1194 2.78053 15.0603 3.28126 15.9096 3.93133C17.1587 4.90644 18.0163 6.10996 18.4827 7.55945L15.5682 9.29005C15.5682 8.57848 15.3018 7.91084 14.7689 7.27833C14.2359 6.64583 13.5198 6.1451 12.6372 5.77614C11.7545 5.40718 10.7969 5.2227 9.78103 5.2227C8.73184 5.2227 7.76592 5.40718 6.86662 5.77614C5.96731 6.1451 5.25952 6.63704 4.73493 7.25198C4.21033 7.86691 3.9522 8.54334 3.9522 9.28126C3.9522 9.91377 4.17702 10.5375 4.62668 11.1524C5.07633 11.7674 5.63423 12.2329 6.30871 12.5492C6.80833 12.8127 7.49113 13.0148 8.36546 13.1553C9.23978 13.3047 9.77271 13.3838 9.97255 13.4101C10.9968 13.5419 11.9044 13.7 12.6955 13.8845C13.4948 14.069 14.2276 14.3413 14.9021 14.7103C16.0345 15.3164 16.9588 16.1685 17.6583 17.2842Z" fill="#58595B"/>
<path d="M65.8378 27.861H61.9158L52.6896 14.1129H56.2036C57.1778 14.1129 57.9938 14.0514 58.6683 13.9196C59.3428 13.7878 59.8424 13.656 60.1588 13.5243C60.9582 13.1553 61.5744 12.6107 62.0074 11.8903C62.4404 11.17 62.6652 10.4672 62.6652 9.78196C62.6652 9.04404 62.4571 8.35882 62.0324 7.71754C61.6077 7.07625 60.9998 6.54916 60.2005 6.14506C59.4011 5.74096 58.4851 5.53891 57.4359 5.53891H51.7903L51.8652 27.8786H48.6927V2.22705H57.4359C58.6017 2.22705 59.7009 2.4291 60.7251 2.81563C61.7493 3.21095 62.6402 3.77317 63.4146 4.51109C64.1641 5.22266 64.7386 6.03086 65.155 6.95326C65.563 7.87566 65.7712 8.81563 65.7712 9.79074C65.7712 11.3369 65.3215 12.7336 64.4305 13.9723C64.0558 14.4994 63.6062 14.9825 63.0649 15.4306C62.532 15.8786 61.9741 16.2476 61.3995 16.5374C60.4753 16.9064 59.6176 17.0909 58.8182 17.0909L65.8378 27.861Z" fill="#58595B"/>
<path d="M74.914 2.20947H71.7748V27.861H74.914V2.20947Z" fill="#58595B"/>
<path d="M85.256 14.1128H90.9683C91.8926 14.1128 92.7336 13.9196 93.508 13.5243C94.2824 13.1289 94.8986 12.6019 95.3566 11.9518C95.8146 11.2929 96.0477 10.5726 96.0477 9.78195C96.0477 9.01767 95.8146 8.31489 95.3566 7.65603C94.8986 6.99717 94.2824 6.47887 93.508 6.10113C92.7336 5.72338 91.8926 5.53012 90.9683 5.53012H85.1811L85.256 14.1128ZM82.0835 27.861V2.20947H90.9766C92.0425 2.20947 93.075 2.39395 94.0576 2.76291C95.0402 3.13187 95.9062 3.65896 96.6556 4.33539C97.455 5.04695 98.0712 5.87272 98.5042 6.82148C98.9372 7.77023 99.1537 8.75413 99.1537 9.77316C99.1537 10.8273 98.9372 11.82 98.5042 12.7512C98.0712 13.6824 97.455 14.5169 96.6556 15.2549C95.9062 15.9401 95.0402 16.4672 94.0576 16.8537C93.075 17.2314 92.0425 17.4247 90.9766 17.4247H85.2644V27.8698H82.0835V27.861Z" fill="#58595B"/>
<path d="M35.7028 17.7672L33.7793 20.5432L39.5415 27.8609H43.5801L35.7028 17.7672Z" fill="#58595B"/>
<path d="M45.2453 0.680908L43.1386 0.988375L36.9267 10.2827L34.4703 8.41151L30.4567 14.2358L30.465 14.2446L24.4114 23.0206V28.4935L29.3909 21.3427L29.3742 21.3339L33.7542 15.0177L35.0365 13.1729L35.328 12.7424L37.8094 14.6663L45.6533 2.93859L45.2453 0.680908Z" fill="url(#paint0_linear)"/>
<path d="M27.5923 12.8303V2.20947H24.4114V17.4423L27.5923 12.8303Z" fill="#58595B"/>
<defs>
<linearGradient id="paint0_linear" x1="24.4114" y1="14.5872" x2="45.6533" y2="14.5872" gradientUnits="userSpaceOnUse">
<stop stop-color="#37BCAE"/>
<stop offset="1" stop-color="#38CD98"/>
</linearGradient>
</defs>
</svg>
